<svg xmlns="http://www.w3.org/2000/svg" xmlns:xlink="http://www.w3.org/1999/xlink" width="500" zoomAndPan="magnify" viewBox="0 0 375 374.999991" height="500" preserveAspectRatio="xMidYMid meet" version="1.0"><defs><g/><clipPath id="45bb7cf4a5"><path d="M 178 93.871094 L 199 93.871094 L 199 114 L 178 114 Z M 178 93.871094 " clip-rule="nonzero"/></clipPath><clipPath id="f32cad6ae2"><path d="M 147.976562 117 L 226.726562 117 L 226.726562 206 L 147.976562 206 Z M 147.976562 117 " clip-rule="nonzero"/></clipPath><clipPath id="a90581576d"><path d="M 158 133 L 217 133 L 217 212.371094 L 158 212.371094 Z M 158 133 " clip-rule="nonzero"/></clipPath><clipPath id="f7b0e92175"><rect x="0" width="186" y="0" height="57"/></clipPath></defs><rect x="-37.5" width="450" fill="#ffffff" y="-37.499999" height="449.999989" fill-opacity="1"/><rect x="-37.5" width="450" fill="#ffffff" y="-37.499999" height="449.999989" fill-opacity="1"/><g clip-path="url(#45bb7cf4a5)"><path fill="#007078" d="M 194.261719 109.035156 C 188.457031 109.261719 183.570312 104.730469 183.34375 98.914062 C 183.273438 97.148438 183.625 95.472656 184.394531 93.886719 C 180.941406 95.726562 178.65625 99.433594 178.820312 103.613281 C 179.046875 109.429688 183.933594 113.960938 189.734375 113.734375 C 190.6875 113.695312 191.613281 113.535156 192.519531 113.242188 C 193.425781 112.953125 194.277344 112.550781 195.074219 112.027344 C 195.871094 111.507812 196.582031 110.890625 197.210938 110.175781 C 197.839844 109.457031 198.363281 108.671875 198.78125 107.816406 C 197.367188 108.566406 195.859375 108.976562 194.261719 109.035156 Z M 194.261719 109.035156 " fill-opacity="1" fill-rule="nonzero"/></g><g clip-path="url(#f32cad6ae2)"><path fill="#deb43e" d="M 217.96875 150.871094 C 217.257812 146.589844 215.707031 143.023438 213.253906 140.003906 C 210.289062 136.359375 206.683594 134.378906 203.503906 132.628906 C 200.464844 130.960938 197.839844 129.519531 195.125 126.496094 L 187.351562 117.84375 L 179.578125 126.496094 C 176.863281 129.519531 174.238281 130.960938 171.199219 132.628906 C 168.019531 134.378906 164.417969 136.359375 161.449219 140.003906 C 158.996094 143.023438 157.445312 146.589844 156.734375 150.871094 L 147.976562 158.199219 L 147.976562 202.996094 L 154.378906 205.480469 L 154.378906 161.203125 L 162.746094 154.203125 L 162.902344 152.945312 C 163.359375 149.269531 164.476562 146.445312 166.414062 144.058594 C 168.589844 141.382812 171.355469 139.867188 174.277344 138.257812 C 177.53125 136.472656 180.894531 134.625 184.335938 130.796875 L 187.351562 127.433594 L 190.367188 130.792969 C 193.808594 134.625 197.175781 136.472656 200.425781 138.261719 C 203.351562 139.867188 206.113281 141.382812 208.292969 144.058594 C 210.230469 146.445312 211.347656 149.269531 211.800781 152.945312 L 211.960938 154.203125 L 220.328125 161.203125 L 220.328125 205.480469 L 226.730469 202.992188 L 226.730469 158.199219 Z M 217.96875 150.871094 " fill-opacity="1" fill-rule="nonzero"/></g><g clip-path="url(#a90581576d)"><path fill="#007078" d="M 207.964844 156.164062 C 207.601562 141.167969 197.523438 144.839844 187.351562 133.519531 C 177.179688 144.839844 167.101562 141.167969 166.738281 156.164062 L 158.4375 163.105469 L 158.4375 207.058594 L 172.09375 212.359375 L 172.09375 189.074219 C 172.09375 180.625 178.925781 173.773438 187.351562 173.773438 C 195.78125 173.773438 202.609375 180.625 202.609375 189.074219 L 202.609375 212.359375 L 216.265625 207.058594 L 216.265625 163.105469 Z M 207.964844 156.164062 " fill-opacity="1" fill-rule="nonzero"/></g><g transform="matrix(1, 0, 0, 1, 95, 215)"><g clip-path="url(#f7b0e92175)"><g fill="#007078" fill-opacity="1"><g transform="translate(0.58416, 44.533334)"><g><path d="M 2.953125 0.140625 C 2.648438 0.140625 2.425781 0.0351562 2.28125 -0.171875 C 2.132812 -0.378906 2.0625 -0.632812 2.0625 -0.9375 C 2.09375 -1.425781 2.195312 -1.71875 2.375 -1.8125 C 2.5625 -1.914062 2.867188 -1.96875 3.296875 -1.96875 C 4.242188 -1.96875 4.945312 -2.140625 5.40625 -2.484375 C 5.863281 -2.828125 6.15625 -3.242188 6.28125 -3.734375 C 6.414062 -4.222656 6.503906 -4.894531 6.546875 -5.75 L 6.546875 -25.28125 C 6.503906 -26.125 6.414062 -26.789062 6.28125 -27.28125 C 6.15625 -27.78125 5.863281 -28.203125 5.40625 -28.546875 C 4.945312 -28.890625 4.242188 -29.0625 3.296875 -29.0625 L 3 -29.0625 C 2.707031 -29.0625 2.484375 -29.117188 2.328125 -29.234375 C 2.179688 -29.347656 2.09375 -29.632812 2.0625 -30.09375 C 2.0625 -30.382812 2.132812 -30.632812 2.28125 -30.84375 C 2.425781 -31.0625 2.648438 -31.171875 2.953125 -31.171875 C 5.078125 -31.078125 7.023438 -31.03125 8.796875 -31.03125 C 10.765625 -31.03125 12.816406 -31.078125 14.953125 -31.171875 C 15.242188 -31.171875 15.460938 -31.0625 15.609375 -30.84375 C 15.753906 -30.632812 15.828125 -30.382812 15.828125 -30.09375 C 15.796875 -29.601562 15.691406 -29.304688 15.515625 -29.203125 C 15.335938 -29.109375 15.019531 -29.0625 14.5625 -29.0625 C 13.601562 -29.0625 12.894531 -28.890625 12.4375 -28.546875 C 11.976562 -28.203125 11.691406 -27.773438 11.578125 -27.265625 C 11.460938 -26.753906 11.390625 -26.09375 11.359375 -25.28125 L 11.359375 -5.75 C 11.390625 -4.9375 11.460938 -4.273438 11.578125 -3.765625 C 11.691406 -3.253906 11.976562 -2.828125 12.4375 -2.484375 C 12.894531 -2.140625 13.601562 -1.96875 14.5625 -1.96875 L 14.84375 -1.96875 C 15.175781 -1.96875 15.414062 -1.910156 15.5625 -1.796875 C 15.707031 -1.679688 15.796875 -1.394531 15.828125 -0.9375 C 15.828125 -0.632812 15.753906 -0.378906 15.609375 -0.171875 C 15.460938 0.0351562 15.242188 0.140625 14.953125 0.140625 C 12.847656 0.046875 10.8125 0 8.84375 0 C 7.039062 0 5.078125 0.046875 2.953125 0.140625 Z M 2.953125 0.140625 "/></g></g></g><g fill="#007078" fill-opacity="1"><g transform="translate(18.482008, 44.533334)"><g><path d="M 3 0.140625 C 2.707031 0.140625 2.484375 0.0351562 2.328125 -0.171875 C 2.179688 -0.378906 2.109375 -0.632812 2.109375 -0.9375 C 2.140625 -1.425781 2.238281 -1.71875 2.40625 -1.8125 C 2.570312 -1.914062 2.882812 -1.96875 3.34375 -1.96875 C 4.289062 -1.96875 4.992188 -2.140625 5.453125 -2.484375 C 5.910156 -2.828125 6.195312 -3.253906 6.3125 -3.765625 C 6.425781 -4.273438 6.503906 -4.9375 6.546875 -5.75 L 6.546875 -25.21875 C 6.503906 -26.070312 6.425781 -26.742188 6.3125 -27.234375 C 6.195312 -27.734375 5.910156 -28.160156 5.453125 -28.515625 C 4.992188 -28.878906 4.289062 -29.0625 3.34375 -29.0625 L 3.046875 -29.0625 C 2.722656 -29.0625 2.492188 -29.117188 2.359375 -29.234375 C 2.222656 -29.347656 2.140625 -29.632812 2.109375 -30.09375 C 2.109375 -30.382812 2.179688 -30.632812 2.328125 -30.84375 C 2.484375 -31.0625 2.707031 -31.171875 3 -31.171875 C 5.132812 -31.078125 7.082031 -31.03125 8.84375 -31.03125 L 17.3125 -31.03125 C 19.832031 -31 21.9375 -30.597656 23.625 -29.828125 C 25.3125 -29.054688 26.546875 -28.070312 27.328125 -26.875 C 28.117188 -25.675781 28.515625 -24.390625 28.515625 -23.015625 C 28.515625 -21.210938 27.800781 -19.554688 26.375 -18.046875 C 24.945312 -16.535156 23.003906 -15.453125 20.546875 -14.796875 L 21.390625 -13.46875 C 22.765625 -11.238281 24.007812 -9.328125 25.125 -7.734375 C 26.238281 -6.148438 27.453125 -4.671875 28.765625 -3.296875 C 29.679688 -2.535156 30.664062 -2.09375 31.71875 -1.96875 C 31.78125 -1.96875 31.925781 -1.957031 32.15625 -1.9375 C 32.382812 -1.925781 32.570312 -1.835938 32.71875 -1.671875 C 32.863281 -1.503906 32.9375 -1.257812 32.9375 -0.9375 C 32.9375 -0.632812 32.863281 -0.378906 32.71875 -0.171875 C 32.570312 0.0351562 32.351562 0.140625 32.0625 0.140625 L 30.78125 0.09375 C 29.34375 0.03125 28.296875 0 27.640625 0 C 26.328125 -0.257812 25.203125 -0.722656 24.265625 -1.390625 C 23.328125 -2.066406 22.398438 -3.03125 21.484375 -4.28125 C 20.535156 -5.519531 19.207031 -7.550781 17.5 -10.375 L 16.625 -11.796875 C 16.125 -12.554688 15.644531 -13.070312 15.1875 -13.34375 C 14.726562 -13.625 13.941406 -13.765625 12.828125 -13.765625 L 11.40625 -13.765625 L 11.40625 -5.75 C 11.4375 -4.9375 11.507812 -4.273438 11.625 -3.765625 C 11.738281 -3.253906 12.023438 -2.828125 12.484375 -2.484375 C 12.941406 -2.140625 13.648438 -1.96875 14.609375 -1.96875 L 14.90625 -1.96875 C 15.195312 -1.96875 15.414062 -1.910156 15.5625 -1.796875 C 15.707031 -1.679688 15.796875 -1.394531 15.828125 -0.9375 C 15.828125 -0.632812 15.753906 -0.378906 15.609375 -0.171875 C 15.460938 0.0351562 15.242188 0.140625 14.953125 0.140625 C 12.847656 0.046875 10.796875 0 8.796875 0 C 7.066406 0 5.132812 0.046875 3 0.140625 Z M 15.734375 -15.6875 C 20.617188 -15.6875 23.0625 -17.976562 23.0625 -22.5625 C 23.0625 -24.4375 22.421875 -26.007812 21.140625 -27.28125 C 19.859375 -28.5625 17.757812 -29.203125 14.84375 -29.203125 C 13.894531 -29.203125 13.175781 -29.085938 12.6875 -28.859375 C 12.195312 -28.628906 11.859375 -28.234375 11.671875 -27.671875 C 11.492188 -27.117188 11.40625 -26.269531 11.40625 -25.125 L 11.40625 -15.6875 Z M 15.734375 -15.6875 "/></g></g></g><g fill="#007078" fill-opacity="1"><g transform="translate(51.475004, 44.533334)"><g><path d="M 13.03125 0.984375 C 9.59375 0.984375 6.960938 0.382812 5.140625 -0.8125 C 3.316406 -2.007812 2.40625 -3.769531 2.40625 -6.09375 C 2.40625 -7.28125 2.804688 -8.253906 3.609375 -9.015625 C 4.410156 -9.785156 5.453125 -10.171875 6.734375 -10.171875 C 7.492188 -10.140625 8.066406 -9.953125 8.453125 -9.609375 C 8.847656 -9.265625 9.046875 -8.945312 9.046875 -8.65625 C 9.046875 -8.625 8.878906 -8.507812 8.546875 -8.3125 C 8.222656 -8.113281 7.929688 -7.816406 7.671875 -7.421875 C 7.410156 -7.023438 7.28125 -6.484375 7.28125 -5.796875 C 7.28125 -4.253906 7.742188 -3.066406 8.671875 -2.234375 C 9.609375 -1.398438 11.0625 -0.984375 13.03125 -0.984375 C 14.375 -0.984375 15.550781 -1.242188 16.5625 -1.765625 C 17.582031 -2.296875 18.363281 -2.992188 18.90625 -3.859375 C 19.445312 -4.722656 19.71875 -5.632812 19.71875 -6.59375 C 19.71875 -7.769531 19.378906 -8.785156 18.703125 -9.640625 C 18.035156 -10.492188 17.207031 -11.207031 16.21875 -11.78125 C 15.238281 -12.351562 13.894531 -13.015625 12.1875 -13.765625 C 10.226562 -14.648438 8.640625 -15.453125 7.421875 -16.171875 C 6.210938 -16.898438 5.179688 -17.859375 4.328125 -19.046875 C 3.472656 -20.242188 3.046875 -21.726562 3.046875 -23.5 C 3.046875 -26.351562 4.019531 -28.484375 5.96875 -29.890625 C 7.925781 -31.304688 10.492188 -32.015625 13.671875 -32.015625 C 16.160156 -32.015625 18.332031 -31.488281 20.1875 -30.4375 C 22.039062 -29.382812 22.96875 -27.84375 22.96875 -25.8125 C 22.96875 -24.632812 22.5625 -23.660156 21.75 -22.890625 C 20.945312 -22.117188 19.910156 -21.734375 18.640625 -21.734375 C 17.878906 -21.765625 17.300781 -21.953125 16.90625 -22.296875 C 16.519531 -22.640625 16.328125 -22.960938 16.328125 -23.265625 C 16.328125 -23.296875 16.546875 -23.40625 16.984375 -23.59375 C 17.429688 -23.789062 17.828125 -24.085938 18.171875 -24.484375 C 18.515625 -24.878906 18.6875 -25.421875 18.6875 -26.109375 C 18.6875 -27.316406 18.21875 -28.265625 17.28125 -28.953125 C 16.34375 -29.648438 15.15625 -30 13.71875 -30 C 11.71875 -30 10.203125 -29.53125 9.171875 -28.59375 C 8.140625 -27.65625 7.625 -26.5 7.625 -25.125 C 7.625 -23.976562 7.929688 -23.019531 8.546875 -22.25 C 9.171875 -21.476562 10.175781 -20.71875 11.5625 -19.96875 C 12.675781 -19.375 13.882812 -18.78125 15.1875 -18.1875 C 17.289062 -17.238281 18.957031 -16.367188 20.1875 -15.578125 C 21.414062 -14.796875 22.445312 -13.765625 23.28125 -12.484375 C 24.113281 -11.210938 24.53125 -9.625 24.53125 -7.71875 C 24.53125 -6.082031 24.015625 -4.597656 22.984375 -3.265625 C 21.953125 -1.941406 20.554688 -0.898438 18.796875 -0.140625 C 17.046875 0.609375 15.125 0.984375 13.03125 0.984375 Z M 13.03125 0.984375 "/></g></g></g><g fill="#007078" fill-opacity="1"><g transform="translate(78.272603, 44.533334)"><g><path d="M 3 0.140625 C 2.707031 0.140625 2.484375 0.0351562 2.328125 -0.171875 C 2.179688 -0.378906 2.109375 -0.632812 2.109375 -0.9375 C 2.140625 -1.425781 2.238281 -1.71875 2.40625 -1.8125 C 2.570312 -1.914062 2.882812 -1.96875 3.34375 -1.96875 C 4.289062 -1.96875 4.992188 -2.140625 5.453125 -2.484375 C 5.910156 -2.828125 6.195312 -3.253906 6.3125 -3.765625 C 6.425781 -4.273438 6.503906 -4.9375 6.546875 -5.75 L 6.546875 -25.28125 C 6.503906 -26.09375 6.425781 -26.753906 6.3125 -27.265625 C 6.195312 -27.773438 5.910156 -28.203125 5.453125 -28.546875 C 4.992188 -28.890625 4.289062 -29.0625 3.34375 -29.0625 L 3.046875 -29.0625 C 2.722656 -29.0625 2.492188 -29.117188 2.359375 -29.234375 C 2.222656 -29.347656 2.140625 -29.632812 2.109375 -30.09375 C 2.109375 -30.382812 2.179688 -30.632812 2.328125 -30.84375 C 2.484375 -31.0625 2.707031 -31.171875 3 -31.171875 C 5.132812 -31.078125 7.066406 -31.03125 8.796875 -31.03125 C 10.765625 -31.03125 12.816406 -31.078125 14.953125 -31.171875 C 15.242188 -31.171875 15.460938 -31.0625 15.609375 -30.84375 C 15.753906 -30.632812 15.828125 -30.382812 15.828125 -30.09375 C 15.796875 -29.601562 15.695312 -29.304688 15.53125 -29.203125 C 15.375 -29.109375 15.066406 -29.0625 14.609375 -29.0625 C 13.648438 -29.0625 12.941406 -28.890625 12.484375 -28.546875 C 12.023438 -28.203125 11.738281 -27.773438 11.625 -27.265625 C 11.507812 -26.753906 11.4375 -26.09375 11.40625 -25.28125 L 11.40625 -16.578125 L 26.84375 -16.578125 L 26.84375 -25.28125 C 26.8125 -26.09375 26.738281 -26.753906 26.625 -27.265625 C 26.507812 -27.773438 26.222656 -28.203125 25.765625 -28.546875 C 25.304688 -28.890625 24.601562 -29.0625 23.65625 -29.0625 L 23.359375 -29.0625 C 23.023438 -29.0625 22.785156 -29.117188 22.640625 -29.234375 C 22.492188 -29.347656 22.40625 -29.632812 22.375 -30.09375 C 22.375 -30.382812 22.453125 -30.632812 22.609375 -30.84375 C 22.773438 -31.0625 22.992188 -31.171875 23.265625 -31.171875 C 25.390625 -31.078125 27.4375 -31.03125 29.40625 -31.03125 C 31.207031 -31.03125 33.15625 -31.078125 35.25 -31.171875 C 35.550781 -31.171875 35.773438 -31.0625 35.921875 -30.84375 C 36.066406 -30.632812 36.140625 -30.382812 36.140625 -30.09375 C 36.109375 -29.601562 36 -29.304688 35.8125 -29.203125 C 35.632812 -29.109375 35.332031 -29.0625 34.90625 -29.0625 C 33.957031 -29.0625 33.242188 -28.890625 32.765625 -28.546875 C 32.296875 -28.203125 32.003906 -27.773438 31.890625 -27.265625 C 31.773438 -26.753906 31.703125 -26.09375 31.671875 -25.28125 L 31.671875 -5.75 C 31.703125 -4.9375 31.773438 -4.273438 31.890625 -3.765625 C 32.003906 -3.253906 32.296875 -2.828125 32.765625 -2.484375 C 33.242188 -2.140625 33.957031 -1.96875 34.90625 -1.96875 L 35.203125 -1.96875 C 35.503906 -1.96875 35.726562 -1.910156 35.875 -1.796875 C 36.019531 -1.679688 36.109375 -1.394531 36.140625 -0.9375 C 36.140625 -0.632812 36.066406 -0.378906 35.921875 -0.171875 C 35.773438 0.0351562 35.550781 0.140625 35.25 0.140625 C 33.15625 0.046875 31.191406 0 29.359375 0 C 27.421875 0 25.390625 0.046875 23.265625 0.140625 C 22.992188 0.140625 22.773438 0.0351562 22.609375 -0.171875 C 22.453125 -0.378906 22.375 -0.632812 22.375 -0.9375 C 22.40625 -1.425781 22.507812 -1.71875 22.6875 -1.8125 C 22.875 -1.914062 23.195312 -1.96875 23.65625 -1.96875 C 24.601562 -1.96875 25.304688 -2.140625 25.765625 -2.484375 C 26.222656 -2.828125 26.507812 -3.253906 26.625 -3.765625 C 26.738281 -4.273438 26.8125 -4.9375 26.84375 -5.75 L 26.84375 -14.453125 L 11.40625 -14.453125 L 11.40625 -5.75 C 11.4375 -4.9375 11.507812 -4.273438 11.625 -3.765625 C 11.738281 -3.253906 12.023438 -2.828125 12.484375 -2.484375 C 12.941406 -2.140625 13.648438 -1.96875 14.609375 -1.96875 L 14.90625 -1.96875 C 15.226562 -1.96875 15.453125 -1.910156 15.578125 -1.796875 C 15.710938 -1.679688 15.796875 -1.394531 15.828125 -0.9375 C 15.828125 -0.632812 15.753906 -0.378906 15.609375 -0.171875 C 15.460938 0.0351562 15.242188 0.140625 14.953125 0.140625 C 12.847656 0.046875 10.8125 0 8.84375 0 C 7.082031 0 5.132812 0.046875 3 0.140625 Z M 3 0.140625 "/></g></g></g><g fill="#007078" fill-opacity="1"><g transform="translate(116.477604, 44.533334)"><g><path d="M 0.296875 0.140625 C 0.00390625 0.140625 -0.210938 0.0351562 -0.359375 -0.171875 C -0.515625 -0.378906 -0.59375 -0.632812 -0.59375 -0.9375 C -0.5625 -1.425781 -0.460938 -1.71875 -0.296875 -1.8125 C -0.128906 -1.914062 0.0664062 -1.96875 0.296875 -1.96875 C 0.523438 -1.96875 0.671875 -1.96875 0.734375 -1.96875 C 1.722656 -1.96875 2.445312 -2.21875 2.90625 -2.71875 C 3.363281 -3.226562 3.726562 -3.800781 4 -4.4375 C 4.28125 -5.082031 4.472656 -5.519531 4.578125 -5.75 L 13.171875 -26.109375 C 13.367188 -26.597656 13.46875 -26.992188 13.46875 -27.296875 C 13.46875 -27.878906 13.238281 -28.300781 12.78125 -28.5625 C 12.320312 -28.832031 11.679688 -29.046875 10.859375 -29.203125 C 10.304688 -29.304688 9.960938 -29.40625 9.828125 -29.5 C 9.703125 -29.601562 9.640625 -29.882812 9.640625 -30.34375 C 9.640625 -30.726562 9.742188 -30.988281 9.953125 -31.125 C 10.171875 -31.257812 10.507812 -31.328125 10.96875 -31.328125 C 12.601562 -31.328125 13.90625 -31.203125 14.875 -30.953125 C 15.84375 -30.703125 16.6875 -30.207031 17.40625 -29.46875 C 18.125 -28.738281 18.796875 -27.617188 19.421875 -26.109375 L 27.6875 -5.75 C 28.175781 -4.507812 28.648438 -3.578125 29.109375 -2.953125 C 29.566406 -2.328125 30.253906 -2 31.171875 -1.96875 L 31.46875 -1.96875 C 31.800781 -1.96875 32.03125 -1.910156 32.15625 -1.796875 C 32.289062 -1.679688 32.375 -1.394531 32.40625 -0.9375 C 32.40625 -0.632812 32.332031 -0.378906 32.1875 -0.171875 C 32.039062 0.0351562 31.816406 0.140625 31.515625 0.140625 C 29.421875 0.046875 27.617188 0 26.109375 0 C 24.140625 0 22.109375 0.046875 20.015625 0.140625 C 19.722656 0.140625 19.5 0.0351562 19.34375 -0.171875 C 19.195312 -0.378906 19.125 -0.632812 19.125 -0.9375 C 19.15625 -1.394531 19.238281 -1.679688 19.375 -1.796875 C 19.507812 -1.910156 19.738281 -1.96875 20.0625 -1.96875 C 21.175781 -1.96875 21.960938 -2.070312 22.421875 -2.28125 C 22.878906 -2.5 23.109375 -2.882812 23.109375 -3.4375 C 23.109375 -3.863281 22.910156 -4.632812 22.515625 -5.75 L 20.84375 -9.828125 L 8.703125 -9.828125 C 7.878906 -7.796875 7.410156 -6.613281 7.296875 -6.28125 C 7.179688 -5.957031 7.125 -5.78125 7.125 -5.75 C 6.738281 -4.507812 6.546875 -3.707031 6.546875 -3.34375 C 6.546875 -2.78125 6.789062 -2.410156 7.28125 -2.234375 C 7.769531 -2.054688 8.703125 -1.96875 10.078125 -1.96875 L 10.375 -1.96875 C 10.695312 -1.96875 10.925781 -1.910156 11.0625 -1.796875 C 11.195312 -1.679688 11.28125 -1.394531 11.3125 -0.9375 C 11.3125 -0.632812 11.234375 -0.378906 11.078125 -0.171875 C 10.929688 0.0351562 10.710938 0.140625 10.421875 0.140625 C 8.328125 0.046875 6.539062 0 5.0625 0 C 4.007812 0 2.421875 0.046875 0.296875 0.140625 Z M 9.640625 -11.953125 L 19.96875 -11.953125 L 15 -24.59375 L 14.84375 -24.59375 Z M 9.640625 -11.953125 "/></g></g></g><g fill="#007078" fill-opacity="1"><g transform="translate(148.585537, 44.533334)"><g><path d="M 2.953125 0.140625 C 2.691406 0.140625 2.484375 0.0351562 2.328125 -0.171875 C 2.179688 -0.378906 2.109375 -0.632812 2.109375 -0.9375 C 2.140625 -1.425781 2.238281 -1.71875 2.40625 -1.8125 C 2.570312 -1.914062 2.882812 -1.96875 3.34375 -1.96875 C 4.289062 -1.96875 4.992188 -2.140625 5.453125 -2.484375 C 5.910156 -2.828125 6.195312 -3.253906 6.3125 -3.765625 C 6.425781 -4.273438 6.503906 -4.9375 6.546875 -5.75 L 6.546875 -25.28125 C 6.503906 -26.09375 6.425781 -26.753906 6.3125 -27.265625 C 6.195312 -27.773438 5.910156 -28.203125 5.453125 -28.546875 C 4.992188 -28.890625 4.289062 -29.0625 3.34375 -29.0625 L 3.046875 -29.0625 C 2.722656 -29.0625 2.492188 -29.117188 2.359375 -29.234375 C 2.222656 -29.347656 2.140625 -29.632812 2.109375 -30.09375 C 2.109375 -30.382812 2.179688 -30.632812 2.328125 -30.84375 C 2.484375 -31.0625 2.691406 -31.171875 2.953125 -31.171875 C 5.117188 -31.078125 7.066406 -31.03125 8.796875 -31.03125 L 16.46875 -31.03125 C 19.613281 -31.03125 22.472656 -30.394531 25.046875 -29.125 C 27.617188 -27.863281 29.648438 -26.050781 31.140625 -23.6875 C 32.640625 -21.332031 33.390625 -18.550781 33.390625 -15.34375 C 33.390625 -12 32.546875 -9.171875 30.859375 -6.859375 C 29.171875 -4.546875 26.972656 -2.820312 24.265625 -1.6875 C 21.554688 -0.5625 18.664062 0 15.59375 0 L 8.796875 0 C 7.066406 0 5.117188 0.046875 2.953125 0.140625 Z M 16.328125 -1.8125 C 20.160156 -1.8125 22.96875 -3 24.75 -5.375 C 26.539062 -7.757812 27.4375 -11.082031 27.4375 -15.34375 C 27.4375 -18.03125 26.953125 -20.429688 25.984375 -22.546875 C 25.015625 -24.660156 23.613281 -26.304688 21.78125 -27.484375 C 19.945312 -28.660156 17.769531 -29.25 15.25 -29.25 L 11.40625 -29.203125 L 11.40625 -5.15625 C 11.40625 -3.882812 11.789062 -3.007812 12.5625 -2.53125 C 13.332031 -2.050781 14.585938 -1.8125 16.328125 -1.8125 Z M 16.328125 -1.8125 "/></g></g></g></g></g><g fill="#c99331" fill-opacity="1"><g transform="translate(130.045111, 278.538733)"><g><path d="M 2.8125 0 L 1.109375 0 L 1.109375 -8.578125 L 2.8125 -8.578125 Z M 2.8125 0 "/></g></g></g><g fill="#c99331" fill-opacity="1"><g transform="translate(135.080992, 278.538733)"><g><path d="M 3.796875 0.125 C 3.203125 0.125 2.671875 0.0507812 2.203125 -0.09375 C 1.742188 -0.238281 1.359375 -0.429688 1.046875 -0.671875 C 0.742188 -0.910156 0.507812 -1.171875 0.34375 -1.453125 L 1.28125 -2.59375 L 1.421875 -2.59375 C 1.679688 -2.21875 2.007812 -1.914062 2.40625 -1.6875 C 2.800781 -1.457031 3.265625 -1.34375 3.796875 -1.34375 C 4.253906 -1.34375 4.597656 -1.4375 4.828125 -1.625 C 5.054688 -1.820312 5.171875 -2.085938 5.171875 -2.421875 C 5.171875 -2.628906 5.132812 -2.800781 5.0625 -2.9375 C 4.988281 -3.070312 4.863281 -3.1875 4.6875 -3.28125 C 4.519531 -3.382812 4.289062 -3.46875 4 -3.53125 L 2.890625 -3.796875 C 2.117188 -3.960938 1.546875 -4.25 1.171875 -4.65625 C 0.796875 -5.070312 0.609375 -5.609375 0.609375 -6.265625 C 0.609375 -6.742188 0.726562 -7.164062 0.96875 -7.53125 C 1.207031 -7.90625 1.554688 -8.191406 2.015625 -8.390625 C 2.484375 -8.597656 3.039062 -8.703125 3.6875 -8.703125 C 4.351562 -8.703125 4.921875 -8.613281 5.390625 -8.4375 C 5.859375 -8.257812 6.253906 -7.992188 6.578125 -7.640625 L 5.75 -6.484375 L 5.59375 -6.484375 C 5.351562 -6.742188 5.078125 -6.9375 4.765625 -7.0625 C 4.453125 -7.1875 4.09375 -7.25 3.6875 -7.25 C 3.21875 -7.25 2.863281 -7.164062 2.625 -7 C 2.382812 -6.84375 2.265625 -6.617188 2.265625 -6.328125 C 2.265625 -6.054688 2.347656 -5.835938 2.515625 -5.671875 C 2.691406 -5.515625 2.988281 -5.390625 3.40625 -5.296875 L 4.53125 -5.0625 C 5.363281 -4.894531 5.96875 -4.597656 6.34375 -4.171875 C 6.71875 -3.753906 6.90625 -3.207031 6.90625 -2.53125 C 6.90625 -1.988281 6.789062 -1.519531 6.5625 -1.125 C 6.332031 -0.726562 5.984375 -0.421875 5.515625 -0.203125 C 5.046875 0.015625 4.472656 0.125 3.796875 0.125 Z M 3.796875 0.125 "/></g></g></g><g fill="#c99331" fill-opacity="1"><g transform="translate(143.553819, 278.538733)"><g><path d="M 2.8125 -8.578125 L 2.8125 -1.421875 L 6.671875 -1.421875 L 6.671875 0 L 1.109375 0 L 1.109375 -8.578125 Z M 2.8125 -8.578125 "/></g></g></g><g fill="#c99331" fill-opacity="1"><g transform="translate(151.604359, 278.538733)"><g><path d="M 8.234375 0 L 6.453125 0 L 5.796875 -1.984375 L 2.515625 -1.984375 L 1.875 0 L 0.125 0 L 3.09375 -8.578125 L 5.265625 -8.578125 Z M 4.078125 -6.78125 L 2.96875 -3.40625 L 5.328125 -3.40625 L 4.21875 -6.78125 Z M 4.078125 -6.78125 "/></g></g></g><g fill="#c99331" fill-opacity="1"><g transform="translate(161.068394, 278.538733)"><g><path d="M 2.671875 0 L 1.109375 0 L 1.109375 -8.578125 L 3.328125 -8.578125 L 5.5 -2.265625 L 5.625 -2.265625 L 7.78125 -8.578125 L 9.953125 -8.578125 L 9.953125 0 L 8.34375 0 L 8.34375 -5.671875 L 8.203125 -5.6875 L 6.21875 0 L 4.796875 0 L 2.8125 -5.6875 L 2.671875 -5.671875 Z M 2.671875 0 "/></g></g></g><g fill="#c99331" fill-opacity="1"><g transform="translate(173.242103, 278.538733)"><g><path d="M 2.8125 0 L 1.109375 0 L 1.109375 -8.578125 L 2.8125 -8.578125 Z M 2.8125 0 "/></g></g></g><g fill="#c99331" fill-opacity="1"><g transform="translate(178.277984, 278.538733)"><g><path d="M 4.6875 0.125 C 3.894531 0.125 3.195312 -0.0351562 2.59375 -0.359375 C 2 -0.691406 1.53125 -1.1875 1.1875 -1.84375 C 0.84375 -2.507812 0.671875 -3.320312 0.671875 -4.28125 C 0.671875 -5.25 0.84375 -6.0625 1.1875 -6.71875 C 1.53125 -7.382812 2 -7.878906 2.59375 -8.203125 C 3.195312 -8.535156 3.894531 -8.703125 4.6875 -8.703125 C 5.507812 -8.703125 6.207031 -8.539062 6.78125 -8.21875 C 7.363281 -7.894531 7.78125 -7.398438 8.03125 -6.734375 L 6.78125 -5.984375 L 6.640625 -5.984375 C 6.453125 -6.429688 6.203125 -6.75 5.890625 -6.9375 C 5.578125 -7.132812 5.175781 -7.234375 4.6875 -7.234375 C 3.976562 -7.234375 3.421875 -7 3.015625 -6.53125 C 2.617188 -6.0625 2.421875 -5.3125 2.421875 -4.28125 C 2.421875 -3.257812 2.617188 -2.515625 3.015625 -2.046875 C 3.421875 -1.578125 3.976562 -1.34375 4.6875 -1.34375 C 5.800781 -1.34375 6.484375 -1.882812 6.734375 -2.96875 L 6.875 -2.96875 L 8.125 -2.3125 C 7.894531 -1.5 7.492188 -0.890625 6.921875 -0.484375 C 6.359375 -0.078125 5.613281 0.125 4.6875 0.125 Z M 4.6875 0.125 "/></g></g></g><g fill="#c99331" fill-opacity="1"><g transform="translate(187.794798, 278.538733)"><g/></g></g><g fill="#c99331" fill-opacity="1"><g transform="translate(191.733911, 278.538733)"><g><path d="M 4.6875 0.125 C 3.894531 0.125 3.195312 -0.0351562 2.59375 -0.359375 C 2 -0.691406 1.53125 -1.1875 1.1875 -1.84375 C 0.84375 -2.507812 0.671875 -3.320312 0.671875 -4.28125 C 0.671875 -5.25 0.84375 -6.0625 1.1875 -6.71875 C 1.53125 -7.382812 2 -7.878906 2.59375 -8.203125 C 3.195312 -8.535156 3.894531 -8.703125 4.6875 -8.703125 C 5.507812 -8.703125 6.207031 -8.539062 6.78125 -8.21875 C 7.363281 -7.894531 7.78125 -7.398438 8.03125 -6.734375 L 6.78125 -5.984375 L 6.640625 -5.984375 C 6.453125 -6.429688 6.203125 -6.75 5.890625 -6.9375 C 5.578125 -7.132812 5.175781 -7.234375 4.6875 -7.234375 C 3.976562 -7.234375 3.421875 -7 3.015625 -6.53125 C 2.617188 -6.0625 2.421875 -5.3125 2.421875 -4.28125 C 2.421875 -3.257812 2.617188 -2.515625 3.015625 -2.046875 C 3.421875 -1.578125 3.976562 -1.34375 4.6875 -1.34375 C 5.800781 -1.34375 6.484375 -1.882812 6.734375 -2.96875 L 6.875 -2.96875 L 8.125 -2.3125 C 7.894531 -1.5 7.492188 -0.890625 6.921875 -0.484375 C 6.359375 -0.078125 5.613281 0.125 4.6875 0.125 Z M 4.6875 0.125 "/></g></g></g><g fill="#c99331" fill-opacity="1"><g transform="translate(201.250726, 278.538733)"><g><path d="M 2.8125 -3.765625 L 2.8125 -1.421875 L 6.90625 -1.421875 L 6.90625 0 L 1.109375 0 L 1.109375 -8.578125 L 6.8125 -8.578125 L 6.8125 -7.15625 L 2.8125 -7.15625 L 2.8125 -5.15625 L 6.3125 -5.15625 L 6.3125 -3.765625 Z M 2.8125 -3.765625 "/></g></g></g><g fill="#c99331" fill-opacity="1"><g transform="translate(209.729424, 278.538733)"><g><path d="M 2.75 0 L 1.109375 0 L 1.109375 -8.578125 L 3.0625 -8.578125 L 6.5 -3.046875 L 6.65625 -3.078125 L 6.65625 -8.578125 L 8.28125 -8.578125 L 8.28125 0 L 6.546875 0 L 2.90625 -5.90625 L 2.75 -5.875 Z M 2.75 0 "/></g></g></g><g fill="#c99331" fill-opacity="1"><g transform="translate(220.237446, 278.538733)"><g><path d="M 6.875 -8.578125 L 6.875 -7.15625 L 4.40625 -7.15625 L 4.40625 0 L 2.703125 0 L 2.703125 -7.15625 L 0.234375 -7.15625 L 0.234375 -8.578125 Z M 6.875 -8.578125 "/></g></g></g><g fill="#c99331" fill-opacity="1"><g transform="translate(228.452209, 278.538733)"><g><path d="M 2.8125 -3.765625 L 2.8125 -1.421875 L 6.90625 -1.421875 L 6.90625 0 L 1.109375 0 L 1.109375 -8.578125 L 6.8125 -8.578125 L 6.8125 -7.15625 L 2.8125 -7.15625 L 2.8125 -5.15625 L 6.3125 -5.15625 L 6.3125 -3.765625 Z M 2.8125 -3.765625 "/></g></g></g><g fill="#c99331" fill-opacity="1"><g transform="translate(236.930907, 278.538733)"><g><path d="M 1.109375 0 L 1.109375 -8.578125 L 4.5625 -8.578125 C 5.445312 -8.578125 6.113281 -8.367188 6.5625 -7.953125 C 7.019531 -7.546875 7.25 -6.984375 7.25 -6.265625 C 7.25 -5.742188 7.113281 -5.316406 6.84375 -4.984375 C 6.582031 -4.660156 6.191406 -4.410156 5.671875 -4.234375 L 5.671875 -4.109375 C 5.941406 -3.992188 6.160156 -3.816406 6.328125 -3.578125 C 6.492188 -3.347656 6.648438 -3.007812 6.796875 -2.5625 L 7.65625 0 L 5.90625 0 L 5.0625 -2.5625 C 4.976562 -2.820312 4.882812 -3.019531 4.78125 -3.15625 C 4.675781 -3.300781 4.539062 -3.40625 4.375 -3.46875 C 4.207031 -3.539062 3.988281 -3.578125 3.71875 -3.578125 L 2.8125 -3.578125 L 2.8125 0 Z M 4.359375 -4.921875 C 5.171875 -4.921875 5.578125 -5.300781 5.578125 -6.0625 C 5.578125 -6.84375 5.171875 -7.234375 4.359375 -7.234375 L 2.8125 -7.234375 L 2.8125 -4.921875 Z M 4.359375 -4.921875 "/></g></g></g><path stroke-linecap="butt" transform="matrix(0.75, 0, 0, 0.75, 94.69034, 273.782795)" fill="none" stroke-linejoin="miter" d="M 0.00142182 0.49794 L 42.069133 0.49794 " stroke="#c99331" stroke-width="1" stroke-opacity="1" stroke-miterlimit="4"/><path stroke-linecap="butt" transform="matrix(0.75, 0, 0, 0.75, 250.558289, 273.782795)" fill="none" stroke-linejoin="miter" d="M 0.000406538 0.49794 L 42.068118 0.49794 " stroke="#c99331" stroke-width="1" stroke-opacity="1" stroke-miterlimit="4"/><g fill="#007078" fill-opacity="1"><g transform="translate(143.000583, 307.417129)"><g><path d="M 1.75 0.09375 C 1.59375 0.09375 1.46875 0.03125 1.375 -0.09375 C 1.289062 -0.226562 1.25 -0.378906 1.25 -0.546875 C 1.269531 -0.847656 1.328125 -1.023438 1.421875 -1.078125 C 1.523438 -1.140625 1.710938 -1.171875 1.984375 -1.171875 C 2.546875 -1.171875 2.960938 -1.269531 3.234375 -1.46875 C 3.503906 -1.675781 3.675781 -1.929688 3.75 -2.234375 C 3.820312 -2.535156 3.863281 -2.929688 3.875 -3.421875 L 3.875 -15 C 3.863281 -15.488281 3.820312 -15.882812 3.75 -16.1875 C 3.675781 -16.488281 3.503906 -16.738281 3.234375 -16.9375 C 2.960938 -17.144531 2.546875 -17.25 1.984375 -17.25 L 1.8125 -17.25 C 1.613281 -17.25 1.472656 -17.28125 1.390625 -17.34375 C 1.316406 -17.414062 1.269531 -17.585938 1.25 -17.859375 C 1.25 -18.035156 1.289062 -18.1875 1.375 -18.3125 C 1.46875 -18.4375 1.59375 -18.5 1.75 -18.5 C 3.03125 -18.445312 4.1875 -18.421875 5.21875 -18.421875 L 9.78125 -18.421875 C 11.644531 -18.421875 13.335938 -18.046875 14.859375 -17.296875 C 16.390625 -16.546875 17.597656 -15.46875 18.484375 -14.0625 C 19.367188 -12.664062 19.8125 -11.015625 19.8125 -9.109375 C 19.8125 -7.117188 19.3125 -5.4375 18.3125 -4.0625 C 17.3125 -2.695312 16.007812 -1.675781 14.40625 -1 C 12.800781 -0.332031 11.082031 0 9.25 0 L 5.21875 0 C 4.1875 0 3.03125 0.03125 1.75 0.09375 Z M 9.6875 -1.078125 C 11.96875 -1.078125 13.632812 -1.78125 14.6875 -3.1875 C 15.75 -4.601562 16.28125 -6.578125 16.28125 -9.109375 C 16.28125 -10.703125 15.992188 -12.125 15.421875 -13.375 C 14.847656 -14.632812 14.015625 -15.613281 12.921875 -16.3125 C 11.835938 -17.007812 10.546875 -17.359375 9.046875 -17.359375 L 6.765625 -17.34375 L 6.765625 -3.0625 C 6.765625 -2.300781 6.992188 -1.78125 7.453125 -1.5 C 7.910156 -1.21875 8.65625 -1.078125 9.6875 -1.078125 Z M 9.6875 -1.078125 "/></g></g></g><g fill="#007078" fill-opacity="1"><g transform="translate(164.243437, 307.417129)"><g><path d="M 10.484375 0.578125 C 8.984375 0.578125 7.703125 0.316406 6.640625 -0.203125 C 5.578125 -0.734375 4.773438 -1.425781 4.234375 -2.28125 C 3.691406 -3.132812 3.421875 -4.054688 3.421875 -5.046875 L 3.421875 -15 C 3.398438 -15.488281 3.351562 -15.882812 3.28125 -16.1875 C 3.21875 -16.488281 3.046875 -16.738281 2.765625 -16.9375 C 2.492188 -17.144531 2.078125 -17.25 1.515625 -17.25 L 1.34375 -17.25 C 1.144531 -17.25 1.003906 -17.28125 0.921875 -17.34375 C 0.847656 -17.414062 0.800781 -17.585938 0.78125 -17.859375 C 0.78125 -18.035156 0.820312 -18.1875 0.90625 -18.3125 C 1 -18.4375 1.132812 -18.5 1.3125 -18.5 C 2.5625 -18.445312 3.707031 -18.421875 4.75 -18.421875 C 5.9375 -18.421875 7.15625 -18.445312 8.40625 -18.5 C 8.582031 -18.5 8.710938 -18.4375 8.796875 -18.3125 C 8.890625 -18.1875 8.9375 -18.035156 8.9375 -17.859375 C 8.914062 -17.585938 8.859375 -17.414062 8.765625 -17.34375 C 8.679688 -17.28125 8.539062 -17.25 8.34375 -17.25 C 7.71875 -17.25 7.257812 -17.148438 6.96875 -16.953125 C 6.675781 -16.765625 6.492188 -16.523438 6.421875 -16.234375 C 6.359375 -15.941406 6.316406 -15.53125 6.296875 -15 L 6.296875 -5.890625 C 6.296875 -4.546875 6.613281 -3.414062 7.25 -2.5 C 7.882812 -1.59375 9.113281 -1.140625 10.9375 -1.140625 C 12.726562 -1.140625 14 -1.550781 14.75 -2.375 C 15.5 -3.207031 15.875 -4.242188 15.875 -5.484375 L 15.875 -13.15625 C 15.875 -14.476562 15.828125 -15.410156 15.734375 -15.953125 C 15.640625 -16.503906 15.441406 -16.859375 15.140625 -17.015625 C 14.847656 -17.171875 14.34375 -17.25 13.625 -17.25 L 13.453125 -17.25 C 13.273438 -17.25 13.144531 -17.28125 13.0625 -17.34375 C 12.976562 -17.414062 12.925781 -17.585938 12.90625 -17.859375 C 12.90625 -18.035156 12.945312 -18.1875 13.03125 -18.3125 C 13.113281 -18.4375 13.242188 -18.5 13.421875 -18.5 C 14.691406 -18.445312 15.78125 -18.421875 16.6875 -18.421875 C 17.625 -18.421875 18.71875 -18.445312 19.96875 -18.5 C 20.144531 -18.5 20.273438 -18.4375 20.359375 -18.3125 C 20.441406 -18.1875 20.484375 -18.035156 20.484375 -17.859375 C 20.460938 -17.585938 20.410156 -17.414062 20.328125 -17.34375 C 20.242188 -17.28125 20.101562 -17.25 19.90625 -17.25 C 19.125 -17.25 18.582031 -17.179688 18.28125 -17.046875 C 17.976562 -16.910156 17.773438 -16.582031 17.671875 -16.0625 C 17.566406 -15.550781 17.515625 -14.644531 17.515625 -13.34375 L 17.515625 -5.203125 C 17.515625 -3.890625 17.15625 -2.800781 16.4375 -1.9375 C 15.71875 -1.070312 14.816406 -0.4375 13.734375 -0.03125 C 12.648438 0.375 11.566406 0.578125 10.484375 0.578125 Z M 10.484375 0.578125 "/></g></g></g><g fill="#007078" fill-opacity="1"><g transform="translate(185.252854, 307.417129)"><g><path d="M 10.484375 0.578125 C 8.785156 0.578125 7.25 0.222656 5.875 -0.484375 C 4.507812 -1.191406 3.425781 -2.269531 2.625 -3.71875 C 1.832031 -5.164062 1.4375 -6.953125 1.4375 -9.078125 C 1.4375 -11.046875 1.867188 -12.773438 2.734375 -14.265625 C 3.597656 -15.765625 4.796875 -16.925781 6.328125 -17.75 C 7.867188 -18.582031 9.628906 -19 11.609375 -19 C 12.585938 -19 13.550781 -18.851562 14.5 -18.5625 C 15.457031 -18.269531 16.242188 -17.8125 16.859375 -17.1875 C 17.484375 -16.5625 17.796875 -15.796875 17.796875 -14.890625 C 17.796875 -14.023438 17.539062 -13.28125 17.03125 -12.65625 C 16.53125 -12.039062 15.863281 -11.734375 15.03125 -11.734375 C 14.625 -11.734375 14.226562 -11.828125 13.84375 -12.015625 C 13.46875 -12.210938 13.269531 -12.46875 13.25 -12.78125 C 13.25 -12.800781 13.378906 -12.90625 13.640625 -13.09375 C 13.910156 -13.289062 14.15625 -13.554688 14.375 -13.890625 C 14.59375 -14.222656 14.703125 -14.625 14.703125 -15.09375 C 14.703125 -15.90625 14.378906 -16.5625 13.734375 -17.0625 C 13.097656 -17.570312 12.273438 -17.828125 11.265625 -17.828125 C 10.054688 -17.828125 8.960938 -17.488281 7.984375 -16.8125 C 7.015625 -16.144531 6.25 -15.164062 5.6875 -13.875 C 5.125 -12.582031 4.84375 -11.039062 4.84375 -9.25 C 4.84375 -7.519531 5.117188 -6.019531 5.671875 -4.75 C 6.234375 -3.488281 7.015625 -2.519531 8.015625 -1.84375 C 9.015625 -1.175781 10.175781 -0.84375 11.5 -0.84375 C 12.125 -0.84375 12.664062 -0.875 13.125 -0.9375 C 13.59375 -1.007812 14.101562 -1.132812 14.65625 -1.3125 L 14.65625 -4.296875 C 14.65625 -4.972656 14.628906 -5.445312 14.578125 -5.71875 C 14.523438 -5.988281 14.367188 -6.191406 14.109375 -6.328125 C 13.847656 -6.460938 13.40625 -6.53125 12.78125 -6.53125 C 12.570312 -6.53125 12.414062 -6.566406 12.3125 -6.640625 C 12.21875 -6.710938 12.160156 -6.882812 12.140625 -7.15625 C 12.140625 -7.320312 12.191406 -7.46875 12.296875 -7.59375 C 12.410156 -7.726562 12.5625 -7.796875 12.75 -7.796875 C 13.976562 -7.734375 15.050781 -7.703125 15.96875 -7.703125 C 16.84375 -7.703125 17.894531 -7.734375 19.125 -7.796875 C 19.289062 -7.796875 19.421875 -7.726562 19.515625 -7.59375 C 19.617188 -7.46875 19.671875 -7.320312 19.671875 -7.15625 C 19.648438 -6.882812 19.585938 -6.710938 19.484375 -6.640625 C 19.390625 -6.566406 19.238281 -6.53125 19.03125 -6.53125 C 18.445312 -6.53125 18.023438 -6.453125 17.765625 -6.296875 C 17.515625 -6.148438 17.359375 -5.929688 17.296875 -5.640625 C 17.242188 -5.359375 17.21875 -4.910156 17.21875 -4.296875 L 17.21875 -0.84375 C 16.070312 -0.300781 15.019531 0.0664062 14.0625 0.265625 C 13.113281 0.472656 11.921875 0.578125 10.484375 0.578125 Z M 10.484375 0.578125 "/></g></g></g><g fill="#007078" fill-opacity="1"><g transform="translate(205.445243, 307.417129)"><g><path d="M 7.734375 0.578125 C 5.691406 0.578125 4.128906 0.222656 3.046875 -0.484375 C 1.972656 -1.191406 1.4375 -2.238281 1.4375 -3.625 C 1.4375 -4.320312 1.671875 -4.898438 2.140625 -5.359375 C 2.617188 -5.816406 3.238281 -6.046875 4 -6.046875 C 4.445312 -6.023438 4.785156 -5.910156 5.015625 -5.703125 C 5.253906 -5.503906 5.375 -5.316406 5.375 -5.140625 C 5.375 -5.117188 5.273438 -5.046875 5.078125 -4.921875 C 4.878906 -4.804688 4.703125 -4.632812 4.546875 -4.40625 C 4.390625 -4.175781 4.3125 -3.851562 4.3125 -3.4375 C 4.3125 -2.53125 4.585938 -1.828125 5.140625 -1.328125 C 5.703125 -0.828125 6.566406 -0.578125 7.734375 -0.578125 C 8.535156 -0.578125 9.234375 -0.734375 9.828125 -1.046875 C 10.429688 -1.359375 10.894531 -1.769531 11.21875 -2.28125 C 11.539062 -2.800781 11.703125 -3.34375 11.703125 -3.90625 C 11.703125 -4.613281 11.5 -5.21875 11.09375 -5.71875 C 10.695312 -6.226562 10.207031 -6.648438 9.625 -6.984375 C 9.039062 -7.328125 8.242188 -7.722656 7.234375 -8.171875 C 6.066406 -8.691406 5.125 -9.164062 4.40625 -9.59375 C 3.6875 -10.03125 3.070312 -10.601562 2.5625 -11.3125 C 2.0625 -12.019531 1.8125 -12.898438 1.8125 -13.953125 C 1.8125 -15.640625 2.390625 -16.898438 3.546875 -17.734375 C 4.703125 -18.578125 6.222656 -19 8.109375 -19 C 9.585938 -19 10.875 -18.6875 11.96875 -18.0625 C 13.070312 -17.445312 13.625 -16.535156 13.625 -15.328125 C 13.625 -14.617188 13.382812 -14.035156 12.90625 -13.578125 C 12.4375 -13.128906 11.820312 -12.90625 11.0625 -12.90625 C 10.613281 -12.925781 10.269531 -13.035156 10.03125 -13.234375 C 9.800781 -13.441406 9.6875 -13.632812 9.6875 -13.8125 C 9.6875 -13.820312 9.816406 -13.882812 10.078125 -14 C 10.347656 -14.125 10.582031 -14.300781 10.78125 -14.53125 C 10.988281 -14.769531 11.09375 -15.09375 11.09375 -15.5 C 11.09375 -16.21875 10.8125 -16.78125 10.25 -17.1875 C 9.695312 -17.59375 8.992188 -17.796875 8.140625 -17.796875 C 6.953125 -17.796875 6.050781 -17.519531 5.4375 -16.96875 C 4.832031 -16.414062 4.53125 -15.734375 4.53125 -14.921875 C 4.53125 -14.234375 4.710938 -13.660156 5.078125 -13.203125 C 5.453125 -12.742188 6.046875 -12.289062 6.859375 -11.84375 C 7.515625 -11.5 8.234375 -11.148438 9.015625 -10.796875 C 10.265625 -10.234375 11.253906 -9.71875 11.984375 -9.25 C 12.710938 -8.78125 13.320312 -8.164062 13.8125 -7.40625 C 14.3125 -6.65625 14.5625 -5.710938 14.5625 -4.578125 C 14.5625 -3.609375 14.253906 -2.726562 13.640625 -1.9375 C 13.023438 -1.15625 12.195312 -0.539062 11.15625 -0.09375 C 10.125 0.351562 8.984375 0.578125 7.734375 0.578125 Z M 7.734375 0.578125 "/></g></g></g><g fill="#007078" fill-opacity="1"><g transform="translate(221.348204, 307.417129)"><g><path d="M 1.75 0.09375 C 1.570312 0.09375 1.4375 0.03125 1.34375 -0.09375 C 1.257812 -0.226562 1.21875 -0.378906 1.21875 -0.546875 C 1.238281 -0.847656 1.300781 -1.023438 1.40625 -1.078125 C 1.519531 -1.140625 1.703125 -1.171875 1.953125 -1.171875 C 2.515625 -1.171875 2.929688 -1.269531 3.203125 -1.46875 C 3.484375 -1.675781 3.660156 -1.925781 3.734375 -2.21875 C 3.816406 -2.507812 3.863281 -2.910156 3.875 -3.421875 L 3.875 -15 C 3.863281 -15.507812 3.816406 -15.910156 3.734375 -16.203125 C 3.660156 -16.492188 3.484375 -16.738281 3.203125 -16.9375 C 2.929688 -17.144531 2.515625 -17.25 1.953125 -17.25 L 1.78125 -17.25 C 1.601562 -17.25 1.46875 -17.28125 1.375 -17.34375 C 1.289062 -17.414062 1.238281 -17.585938 1.21875 -17.859375 C 1.21875 -18.035156 1.257812 -18.1875 1.34375 -18.3125 C 1.4375 -18.4375 1.570312 -18.5 1.75 -18.5 C 3.007812 -18.445312 4.164062 -18.421875 5.21875 -18.421875 C 6.382812 -18.421875 7.601562 -18.445312 8.875 -18.5 C 9.050781 -18.5 9.179688 -18.4375 9.265625 -18.3125 C 9.347656 -18.1875 9.390625 -18.035156 9.390625 -17.859375 C 9.378906 -17.566406 9.316406 -17.390625 9.203125 -17.328125 C 9.097656 -17.273438 8.910156 -17.25 8.640625 -17.25 C 8.078125 -17.25 7.65625 -17.144531 7.375 -16.9375 C 7.101562 -16.738281 6.929688 -16.488281 6.859375 -16.1875 C 6.796875 -15.882812 6.757812 -15.488281 6.75 -15 L 6.75 -3.421875 C 6.757812 -2.929688 6.796875 -2.535156 6.859375 -2.234375 C 6.929688 -1.929688 7.101562 -1.675781 7.375 -1.46875 C 7.65625 -1.269531 8.078125 -1.171875 8.640625 -1.171875 L 8.8125 -1.171875 C 9.007812 -1.171875 9.148438 -1.132812 9.234375 -1.0625 C 9.328125 -1 9.378906 -0.828125 9.390625 -0.546875 C 9.390625 -0.378906 9.347656 -0.226562 9.265625 -0.09375 C 9.179688 0.03125 9.050781 0.09375 8.875 0.09375 C 7.625 0.03125 6.414062 0 5.25 0 C 4.175781 0 3.007812 0.03125 1.75 0.09375 Z M 1.75 0.09375 "/></g></g></g></svg>